<svg width="16" height="16" viewBox="0 0 16 16" fill="none" xmlns="http://www.w3.org/2000/svg">
<ellipse cx="8" cy="7.64706" rx="7.5" ry="7.64706" fill="#F6F3EC"/>
<path d="M14 7.64707C14 9.26957 13.3679 10.8256 12.2426 11.9729C11.1174 13.1202 9.5913 13.7647 8 13.7647C6.4087 13.7647 4.88258 13.1202 3.75736 11.9729C2.63214 10.8256 2 9.26957 2 7.64707C2 6.02457 2.63214 4.46852 3.75736 3.32124C4.88258 2.17396 6.4087 1.52942 8 1.52942C9.5913 1.52942 11.1174 2.17396 12.2426 3.32124C13.3679 4.46852 14 6.02457 14 7.64707ZM7.4 8.25883V10.0941C7.4 10.2564 7.46321 10.412 7.57574 10.5267C7.68826 10.6414 7.84087 10.7059 8 10.7059C8.15913 10.7059 8.31174 10.6414 8.42426 10.5267C8.53679 10.412 8.6 10.2564 8.6 10.0941V8.25883C8.6 8.09658 8.53679 7.94098 8.42426 7.82625C8.31174 7.71152 8.15913 7.64707 8 7.64707C7.84087 7.64707 7.68826 7.71152 7.57574 7.82625C7.46321 7.94098 7.4 8.09658 7.4 8.25883ZM8 4.89413C7.76131 4.89413 7.53239 4.99081 7.3636 5.1629C7.19482 5.33499 7.1 5.5684 7.1 5.81177C7.1 6.05515 7.19482 6.28856 7.3636 6.46065C7.53239 6.63274 7.76131 6.72942 8 6.72942C8.2387 6.72942 8.46761 6.63274 8.6364 6.46065C8.80518 6.28856 8.9 6.05515 8.9 5.81177C8.9 5.5684 8.80518 5.33499 8.6364 5.1629C8.46761 4.99081 8.2387 4.89413 8 4.89413Z" fill="#FF953F"/>
</svg>
