<svg width="16" height="16" viewBox="0 0 16 16" fill="none" xmlns="http://www.w3.org/2000/svg">
<g opacity="0.8">
<path d="M8.08002 8.51999C8.03335 8.51332 7.97335 8.51332 7.92002 8.51999C6.74669 8.47999 5.81335 7.51999 5.81335 6.33999C5.81335 5.13332 6.78669 4.15332 8.00002 4.15332C9.20669 4.15332 10.1867 5.13332 10.1867 6.33999C10.18 7.51999 9.25335 8.47999 8.08002 8.51999Z" stroke="#0A192B" stroke-linecap="round" stroke-linejoin="round"/>
<path d="M12.4934 12.92C11.3067 14.0067 9.73338 14.6667 8.00005 14.6667C6.26671 14.6667 4.69338 14.0067 3.50671 12.92C3.57338 12.2934 3.97338 11.68 4.68671 11.2C6.51338 9.98671 9.50005 9.98671 11.3134 11.2C12.0267 11.68 12.4267 12.2934 12.4934 12.92Z" stroke="#0A192B" stroke-linecap="round" stroke-linejoin="round"/>
<path d="M8.00004 14.6668C11.6819 14.6668 14.6667 11.6821 14.6667 8.00016C14.6667 4.31826 11.6819 1.3335 8.00004 1.3335C4.31814 1.3335 1.33337 4.31826 1.33337 8.00016C1.33337 11.6821 4.31814 14.6668 8.00004 14.6668Z" stroke="#0A192B" stroke-linecap="round" stroke-linejoin="round"/>
</g>
</svg>
