<svg width="40" height="40" viewBox="0 0 40 40" fill="none" xmlns="http://www.w3.org/2000/svg">
<circle cx="19.2" cy="20.8001" r="19.2" fill="#C3AF5B"/>
<circle cx="20.8001" cy="19.2" r="19.2" fill="#FFEB83"/>
<path d="M36.9062 19.1985C36.9062 27.9996 29.7372 35.1355 20.8922 35.1355C12.0472 35.1355 4.87826 27.9996 4.87826 19.1985C4.87826 10.3975 12.0472 3.26156 20.8922 3.26156C29.7372 3.26156 36.9062 10.3975 36.9062 19.1985Z" stroke="#B5A930" stroke-width="0.32"/>
<path d="M28.4235 12.7069H28.5979V12.5325V11.1704V10.9961H28.4235H15.4041H15.2297V11.1704V12.5325V12.7069H15.4041H28.4235ZM18.6204 16.6827V14.3487V14.1743H18.4461H16.6754H16.501V14.3487V29.3659V29.4713L16.5943 29.5203L18.4105 30.4738L18.6658 30.6078V30.3194V21.0976C19.4015 21.7861 19.9752 22.2856 20.3846 22.5927C21.3305 23.3021 22.1522 23.6832 22.8389 23.6832C23.5212 23.6832 24.2511 23.4545 25.0252 23.0133L25.0263 23.0127C25.8046 22.5613 26.4337 21.9797 26.9109 21.2679C27.4282 20.4998 27.6898 19.6793 27.6898 18.8096C27.6898 17.6658 27.1925 16.5407 26.2279 15.4371L26.2276 15.4369C25.2314 14.3016 24.1621 13.7089 23.0205 13.7089C22.4775 13.7089 21.8727 13.937 21.2119 14.364C20.5492 14.7922 19.816 15.4298 19.0124 16.2714L19.0123 16.2715L18.6204 16.6827ZM25.3786 15.9654L25.3794 15.9661C25.9549 16.4761 26.2174 16.9848 26.2174 17.4929C26.2174 18.262 25.8152 19.0911 24.9605 19.9829L24.9603 19.9831C24.0222 20.9652 22.9241 21.4502 21.6584 21.4502C21.2831 21.4502 20.8931 21.3689 20.4874 21.2022L20.487 21.2021C20.0239 21.0131 19.6912 20.8149 19.4767 20.6124C19.2647 20.4123 19.1766 20.217 19.1766 20.0241C19.1766 19.6395 19.3286 19.2111 19.6566 18.7355C19.9846 18.2599 20.4821 17.7467 21.1557 17.1966L21.1558 17.1965C22.4735 16.1198 23.5417 15.6127 24.3713 15.6127C24.789 15.6127 25.1201 15.7334 25.3786 15.9654Z" fill="#494203" stroke="#494203" stroke-width="0.3487"/>
</svg>
