<svg width="16" height="16" viewBox="0 0 16 16" fill="none" xmlns="http://www.w3.org/2000/svg">
<path d="M13.7755 5.33333C13.9141 5.57307 14.0383 5.82224 14.1468 6.07965C14.482 6.87513 14.6673 7.74927 14.6673 8.66667C14.6673 12.3485 11.6825 15.3333 8.00065 15.3333C4.31875 15.3333 1.33398 12.3485 1.33398 8.66667C1.33398 4.98477 4.31875 2 8.00065 2C8.53458 2 9.05385 2.06277 9.55145 2.18133" stroke="#0D5B2F" stroke-width="0.5" stroke-linecap="round" stroke-linejoin="round"/>
<path d="M12.0007 5.99996C13.4734 5.99996 14.6673 4.80605 14.6673 3.33329C14.6673 1.86053 13.4734 0.666626 12.0007 0.666626C10.5279 0.666626 9.33398 1.86053 9.33398 3.33329C9.33398 4.80605 10.5279 5.99996 12.0007 5.99996Z" stroke="#0D5B2F" stroke-width="0.5" stroke-linecap="round" stroke-linejoin="round"/>
<path d="M11.334 3.79937C11.334 4.05737 11.532 4.26537 11.778 4.26537H12.28C12.494 4.26537 12.668 4.08337 12.668 3.85937C12.668 3.61537 12.562 3.52937 12.404 3.47337L11.598 3.19337C11.44 3.13737 11.334 3.05137 11.334 2.80737C11.334 2.58337 11.508 2.40137 11.722 2.40137H12.224C12.47 2.40137 12.668 2.60937 12.668 2.86737" stroke="#0D5B2F" stroke-width="0.5" stroke-linecap="round" stroke-linejoin="round"/>
<path d="M12 2.13318V4.53318" stroke="#0D5B2F" stroke-width="0.5" stroke-linecap="round" stroke-linejoin="round"/>
<path d="M10.9758 7.54989C10.9758 8.18769 10.4587 8.70475 9.82095 8.70475C9.18308 8.70475 8.66602 8.18769 8.66602 7.54989C8.66602 6.91209 9.18308 6.39502 9.82095 6.39502C10.4587 6.39502 10.9758 6.91209 10.9758 7.54989Z" stroke="#0D5B2F" stroke-width="0.5" stroke-linecap="round"/>
<path d="M12.2097 12.1635C12.2097 10.5711 11.0801 9.28027 9.68686 9.28027C8.29353 9.28027 7.16406 10.5711 7.16406 12.1635" stroke="#0D5B2F" stroke-width="0.5" stroke-linecap="round"/>
<path d="M7.14381 6.10823C7.14381 6.74604 6.62678 7.2631 5.98891 7.2631C5.35105 7.2631 4.83398 6.74604 4.83398 6.10823C4.83398 5.47043 5.35105 4.95337 5.98891 4.95337C6.62678 4.95337 7.14381 5.47043 7.14381 6.10823Z" stroke="#0D5B2F" stroke-width="0.5" stroke-linecap="round"/>
<path d="M3.33398 10.7217C3.33398 9.12937 4.46348 7.8385 5.85678 7.8385C6.70732 7.8385 7.45958 8.31957 7.91658 9.05663" stroke="#0D5B2F" stroke-width="0.5" stroke-linecap="round"/>
</svg>
