<?xml version="1.0" encoding="UTF-8"?>
<svg id="Layer_1" data-name="Layer 1" xmlns="http://www.w3.org/2000/svg" viewBox="0 0 152 67">
  <defs>
    <style>
      .cls-1, .cls-2 {
        stroke-width: 0px;
      }

      .cls-2 {
        fill: #ff0031;
      }
    </style>
  </defs>
  <g>
    <path class="cls-2" d="M17.44,28.32c0,2.76-1.25,4.12-3.56,4.12s-3.28-1.11-3.28-3.91v-11.97H3.58v13.46c0,5.24,2.73,8.09,7.43,8.09,2.55.12,5-1.09,6.43-3.23v2.61h6.98v-20.91h-7.02l.04,11.74h0Z"/>
    <path class="cls-2" d="M41.23,15.96c-2.55-.14-5,1.04-6.46,3.14v-2.5h-6.84v29.4h7.02v-10.78c1.48,1.96,3.84,3.04,6.3,2.9,3.49.16,6.72-1.84,8.13-5.04,1.51-3.87,1.51-8.16,0-12.04-1.41-3.23-4.64-5.24-8.15-5.09h0ZM42.53,30.27c-.66,1.39-2.1,2.22-3.63,2.1-2.64,0-4.06-1.67-4.06-4.78v-1.11c0-3.09,1.42-4.78,4.06-4.78,1.53-.12,2.95.71,3.61,2.1.38,1.04.56,2.17.5,3.28.05,1.04-.1,2.14-.49,3.18h0Z"/>
    <path class="cls-2" d="M96.7,15.99c-1.69-.02-3.23.96-3.94,2.47v-1.88h-6.97v20.95h7.02v-13.23c0-1.46.12-1.81.71-2.05.64,1.2,1.91,1.93,3.28,1.88,2.15.07,3.94-1.6,4.03-3.75v-.31c.12-2.12-1.49-3.94-3.59-4.06h-.54Z"/>
    <path class="cls-2" d="M112.68,15.96c-4.71,0-8.27,1.39-9.66,4.46-.38.94-.61,1.93-.63,2.94h7.14c.02-.43.1-.85.26-1.25.42-.92,1.34-1.35,2.97-1.35s2.47.47,2.9,1.39c.3.71.4,1.48.33,2.22v.33h-3.14c-5.12,0-9.19.76-10.72,4.03-.36.9-.52,1.88-.5,2.85-.04,1.02.16,2.05.59,2.97,1.04,2.34,3.53,3.53,6.84,3.53s5.58-1.11,6.91-3.06v2.48h7.02v-12.02c.05-1.75-.24-3.51-.89-5.16-1.35-3-4.34-4.36-9.43-4.36h0ZM116.03,28.91c.07.78-.05,1.58-.38,2.31-.54,1.22-1.75,1.88-3.65,1.88-1.09.16-2.17-.33-2.78-1.25-.28-.61-.28-1.32,0-1.93.45-1.11,2.1-1.3,4.12-1.3h2.69v.3h0Z"/>
    <path class="cls-2" d="M141.43,7.9v10.96c-1.49-1.94-3.84-3.04-6.3-2.9-3.51-.17-6.76,1.86-8.13,5.09-1.51,3.87-1.51,8.16,0,12.04,1.41,3.21,4.64,5.21,8.13,5.04,2.54.16,4.98-1.02,6.46-3.09v2.5h6.84V7.9h-7ZM141.51,27.66c0,3.09-1.42,4.78-4.06,4.78-1.53.12-2.97-.71-3.61-2.1-.38-1.08-.56-2.21-.5-3.34-.05-1.11.12-2.22.5-3.28.64-1.39,2.08-2.22,3.61-2.1,2.64,0,4.06,1.69,4.06,4.78v1.27h0Z"/>
    <path class="cls-2" d="M69.96,27.16h4.52l-.17.69c-.56,2.34-3.34,3.93-5.63,3.93-3.16,0-7.23-1.51-7.23-8.75,0-5.99,2.62-8.91,6.69-8.91,2.22,0,3.89.52,4.91,2.05.47.71.75,1.51.85,2.36h8.01c-.05-2.59-1.09-5.05-2.9-6.91l-.14-.14c-2.43-2.64-6.11-4.12-10.65-4.12-9.26,0-15.25,6.17-15.25,15.7,0,11.05,7.57,14.95,14.07,14.95,3.65,0,6.91-1.11,8.91-3.21l.09,2.73h6.3v-15.77h-12.4l.02,5.4h0Z"/>
  </g>
  <g>
    <polygon class="cls-1" points="61.6 46.62 58.85 46.62 55.55 50.45 55.55 46.62 53.13 46.62 53.13 56.33 55.55 56.33 55.55 52.08 58.96 56.33 61.81 56.33 57.66 51.17 61.6 46.62"/>
    <path class="cls-1" d="M66.66,49.8c-.47,0-.87.1-1.19.29-.32.19-.57.47-.76.82v-.96h-2.11v6.38h2.11v-3.88c0-.25.05-.46.14-.64.09-.18.22-.31.39-.4.17-.09.36-.14.58-.14.33,0,.57.1.71.31.14.2.21.49.21.87v3.88h2.18v-4.1c0-.77-.18-1.36-.54-1.79-.36-.43-.94-.64-1.73-.64Z"/>
    <path class="cls-1" d="M75.72,50.21c-.55-.28-1.17-.42-1.86-.42s-1.32.14-1.87.42c-.55.28-.99.67-1.3,1.16-.31.5-.47,1.09-.47,1.76s.16,1.25.47,1.75c.31.5.75.89,1.3,1.16.55.28,1.18.42,1.87.42s1.31-.14,1.86-.42c.55-.28.98-.67,1.3-1.16.32-.5.48-1.08.48-1.75s-.16-1.26-.48-1.76c-.32-.5-.75-.89-1.3-1.16ZM75.14,53.99c-.13.24-.31.42-.54.55-.23.13-.47.19-.74.19s-.53-.06-.75-.19c-.22-.13-.4-.31-.54-.55-.14-.24-.21-.52-.21-.85s.07-.62.21-.86c.14-.24.32-.43.54-.55.22-.13.47-.19.75-.19s.52.06.74.19c.23.13.41.31.54.55.13.24.2.53.2.86s-.07.62-.2.85Z"/>
    <polygon class="cls-1" points="84.85 53.22 82.96 49.46 81.15 53.22 79.82 49.95 77.63 49.95 80.91 56.73 82.98 52.93 85.09 56.73 88.37 49.95 86.18 49.95 84.85 53.22"/>
    <rect class="cls-1" x="89.09" y="45.51" width="2.11" height="10.82"/>
    <path class="cls-1" d="M97,54.75c-.26.14-.58.21-.95.21-.32,0-.6-.07-.82-.21-.22-.14-.39-.35-.5-.63-.06-.16-.11-.33-.13-.53h4.86c.02-.06.03-.15.03-.24v-.3c0-.68-.13-1.27-.4-1.75-.27-.48-.66-.85-1.16-1.1-.51-.25-1.13-.38-1.87-.38s-1.38.13-1.92.4c-.54.27-.95.65-1.24,1.15-.29.5-.43,1.09-.43,1.77s.15,1.26.44,1.76c.3.5.71.89,1.25,1.16.54.27,1.18.41,1.92.41.81,0,1.5-.16,2.07-.47.57-.31,1.02-.79,1.35-1.41l-1.87-.46c-.16.28-.37.49-.63.62ZM95.22,51.42c.21-.14.48-.21.79-.21.25,0,.47.06.65.17.18.11.33.27.43.47.08.16.13.36.15.57h-2.6c.03-.13.06-.26.1-.37.11-.28.27-.49.48-.63Z"/>
    <path class="cls-1" d="M105.62,50.97c-.21-.31-.46-.57-.76-.76-.41-.27-.89-.4-1.42-.4s-1.01.13-1.47.39c-.46.26-.84.63-1.13,1.12-.29.49-.44,1.1-.44,1.82s.15,1.32.44,1.81c.29.49.67.87,1.13,1.13.46.26.95.39,1.47.39s1.01-.13,1.42-.4c.3-.19.55-.45.76-.76v1.03h2.09v-10.82h-2.09v5.46ZM105.4,54.02c-.15.25-.34.43-.56.56-.23.13-.46.19-.7.19-.28,0-.53-.07-.76-.2-.23-.13-.42-.32-.55-.57-.14-.24-.21-.53-.21-.87s.07-.62.21-.87c.14-.24.32-.43.55-.57.23-.13.49-.2.76-.2.24,0,.47.06.7.19.23.13.41.32.56.56.15.25.22.54.22.88s-.07.64-.22.88Z"/>
    <path class="cls-1" d="M114.18,50.92c-.21-.3-.46-.55-.76-.73-.41-.25-.89-.38-1.42-.38s-1.01.12-1.47.36c-.46.24-.84.6-1.13,1.08-.29.48-.44,1.08-.44,1.8s.15,1.31.44,1.79c.29.48.67.84,1.13,1.09.46.25.95.37,1.47.37s1.01-.13,1.42-.38c.3-.18.55-.43.76-.73v1c0,.39-.07.71-.21.98-.14.26-.34.46-.58.6-.24.13-.51.2-.8.2-.27,0-.51-.04-.72-.13-.21-.09-.38-.22-.51-.4-.12-.18-.2-.39-.23-.65h-2.02c.05.56.2,1.06.46,1.49.26.43.64.76,1.16,1.01.51.24,1.16.36,1.95.36.66,0,1.25-.12,1.77-.35.53-.24.95-.61,1.27-1.12.32-.51.48-1.17.48-1.98v-6.24h-2.01v.97ZM113.95,53.91c-.15.23-.34.4-.56.52-.23.12-.46.17-.7.17-.28,0-.53-.06-.76-.18-.23-.12-.42-.3-.55-.53-.14-.24-.21-.52-.21-.84s.07-.61.21-.85c.14-.23.32-.41.55-.53.23-.12.49-.18.76-.18.18,0,.35.03.53.1.18.06.33.16.48.29.14.13.26.29.35.49.09.19.13.42.13.68,0,.34-.07.63-.22.86Z"/>
    <path class="cls-1" d="M121.96,54.75c-.26.14-.58.21-.95.21-.32,0-.6-.07-.82-.21-.22-.14-.39-.35-.5-.63-.06-.16-.11-.33-.13-.53h4.86c.02-.06.03-.15.03-.24v-.3c0-.68-.13-1.27-.4-1.75-.27-.48-.66-.85-1.16-1.1-.51-.25-1.13-.38-1.87-.38s-1.38.13-1.92.4c-.54.27-.95.65-1.24,1.15-.29.5-.43,1.09-.43,1.77s.15,1.26.44,1.76c.3.5.71.89,1.25,1.16.54.27,1.18.41,1.92.41.81,0,1.5-.16,2.07-.47.57-.31,1.02-.79,1.35-1.41l-1.87-.46c-.16.28-.37.49-.63.62ZM120.18,51.42c.21-.14.48-.21.79-.21.25,0,.47.06.65.17.18.11.33.27.43.47.08.16.13.36.15.57h-2.6c.03-.13.06-.26.1-.37.11-.28.27-.49.48-.63Z"/>
    <polygon class="cls-1" points="132.46 50.16 128.29 50.16 128.29 46.62 125.95 46.62 125.95 56.33 128.29 56.33 128.29 52.26 132.46 52.26 132.46 56.33 134.81 56.33 134.81 46.62 132.46 46.62 132.46 50.16"/>
    <path class="cls-1" d="M140.87,53.83c0,.25-.05.46-.14.64-.09.18-.22.31-.38.4-.16.09-.36.14-.59.14-.34,0-.58-.1-.72-.31-.14-.21-.21-.5-.21-.87v-3.88h-2.19v4.1c0,.76.18,1.35.55,1.78.37.43.95.64,1.74.64.47,0,.86-.1,1.18-.3.31-.2.57-.47.76-.81v.96h2.09v-6.38h-2.09v3.88Z"/>
    <polygon class="cls-1" points="148.13 49.95 147 49.95 147 47.73 144.98 47.73 144.98 49.95 143.86 49.95 143.86 51.68 144.98 51.68 144.98 56.33 147 56.33 147 51.68 148.13 51.68 148.13 49.95"/>
  </g>
</svg>